<svg width="108" height="12" viewBox="0 0 108 12" fill="none" xmlns="http://www.w3.org/2000/svg">
<g clip-path="url(#clip0)">
<path d="M-0.00012207 9.23649V0.0649414H2.00378V7.67399H7.26035V9.23649H-0.00012207Z" fill="white"/>
<path d="M12.5747 9.30135C11.7516 9.30135 11.0521 9.17857 10.4762 8.933C9.9002 8.68843 9.43497 8.35028 9.0816 7.91906C8.72824 7.48833 8.46947 7.00066 8.30531 6.45309C8.14059 5.90651 8.05823 5.33567 8.05823 4.74157V0.0649414H10.0616V4.74157C10.0616 5.24903 10.1395 5.73175 10.2947 6.18772C10.4483 6.64469 10.7104 7.01453 11.0788 7.2992C11.4467 7.58289 11.9403 7.72548 12.5596 7.72548C13.199 7.72548 13.7015 7.58091 14.0699 7.29227C14.4378 7.00413 14.6988 6.63182 14.854 6.17485C15.0087 5.71887 15.0866 5.24062 15.0866 4.74157V0.0649414H17.0761V4.74157C17.0761 5.37033 16.9909 5.95998 16.8212 6.51052C16.6526 7.06205 16.3855 7.54675 16.0226 7.96411C15.6598 8.38197 15.1924 8.70922 14.6214 8.94587C14.0505 9.18352 13.3682 9.30135 12.5747 9.30135Z" fill="white"/>
<path d="M19.0946 9.23649V0.0649414H21.0985V7.67399H26.3551V9.23649H19.0946Z" fill="white"/>
<path d="M30.377 0.0649414H32.4092L36.1995 9.23649H34.1377L33.1794 6.95016H29.5784L28.6346 9.23649H26.5723L30.377 0.0649414ZM32.8166 5.69709L31.3931 1.91212L29.9117 5.69709H32.8166Z" fill="white"/>
<path d="M39.7424 4.58633C39.7424 4.02639 39.856 3.47486 40.0836 2.93273C40.3112 2.39061 40.6428 1.89948 41.0786 1.45984C41.5137 1.02069 42.0463 0.669673 42.6751 0.407275C43.3045 0.144878 44.0207 0.0131836 44.8243 0.0131836C45.7631 0.0131836 46.5811 0.198347 47.2789 0.56917C47.9751 0.939003 48.4937 1.42172 48.8321 2.01533L47.2928 2.95848C47.1187 2.61439 46.8911 2.34308 46.6106 2.14455C46.3301 1.94602 46.0274 1.80442 45.7035 1.71827C45.3791 1.63213 45.0669 1.58906 44.7669 1.58906C44.2633 1.58906 43.8259 1.67916 43.4531 1.86037C43.0802 2.04107 42.7686 2.27822 42.5165 2.57132C42.265 2.86391 42.078 3.19067 41.9578 3.55308C41.837 3.9145 41.7758 4.27641 41.7758 4.63782C41.7758 5.17995 41.9022 5.68642 42.1537 6.15527C42.4052 6.62511 42.7586 7.00584 43.2143 7.29893C43.6684 7.59203 44.196 7.73808 44.7964 7.73808C45.1064 7.73808 45.4281 7.69104 45.7625 7.59599C46.0964 7.50142 46.4036 7.35042 46.6846 7.14397C46.9651 6.93653 47.1832 6.67017 47.3379 6.34291L48.9784 7.18209C48.7659 7.63906 48.4314 8.02474 47.9762 8.33862C47.5216 8.653 47.0085 8.89461 46.437 9.06195C45.8655 9.23028 45.3001 9.31395 44.7386 9.31395C44.0029 9.31395 43.3323 9.1783 42.7274 8.90699C42.1225 8.63568 41.5972 8.27426 41.152 7.82224C40.7068 7.37023 40.3607 6.86177 40.1142 6.29786C39.8654 5.73395 39.7424 5.16311 39.7424 4.58633Z" fill="white"/>
<path d="M54.5961 9.30126C53.8409 9.30126 53.1565 9.17204 52.5416 8.9141C51.9266 8.65566 51.3991 8.30514 50.9589 7.86154C50.5182 7.41794 50.1776 6.91839 49.935 6.3629C49.6929 5.80691 49.5721 5.23707 49.5721 4.65137C49.5721 4.03944 49.6979 3.45573 49.95 2.90024C50.2015 2.34524 50.5549 1.85015 51.0095 1.41497C51.4648 0.980279 51.9995 0.635696 52.6145 0.38122C53.2288 0.127238 53.9044 0 54.6401 0C55.3852 0 56.0652 0.133674 56.6807 0.401023C57.2951 0.667877 57.8226 1.02533 58.2633 1.47339C58.7035 1.92145 59.0424 2.42248 59.2795 2.97846C59.5166 3.53445 59.6356 4.10034 59.6356 4.67761C59.6356 5.28063 59.5093 5.85939 59.2578 6.41489C59.0063 6.97087 58.6551 7.46596 58.2049 7.90065C57.7542 8.33584 57.2222 8.67794 56.6078 8.92796C55.9923 9.17699 55.3223 9.30126 54.5961 9.30126ZM51.605 4.65137C51.605 5.18558 51.7235 5.68512 51.9611 6.14952C52.1982 6.61441 52.5416 6.99315 52.9923 7.28624C53.4425 7.57884 53.9823 7.72588 54.6111 7.72588C55.2594 7.72588 55.8065 7.57488 56.2522 7.27337C56.6968 6.97236 57.0363 6.5847 57.2683 6.1109C57.501 5.6371 57.6173 5.15092 57.6173 4.65137C57.6173 4.11717 57.496 3.61713 57.2544 3.15273C57.0118 2.68785 56.6657 2.31059 56.2155 2.02244C55.7658 1.7343 55.2305 1.58973 54.6111 1.58973C53.9623 1.58973 53.4158 1.74074 52.9706 2.04175C52.5249 2.34326 52.1865 2.72894 51.9539 3.19828C51.7213 3.66713 51.605 4.15183 51.605 4.65137Z" fill="white"/>
<path d="M61.1749 9.23649V0.0649414H65.7337C66.2083 0.0649414 66.6469 0.151087 67.0481 0.323379C67.4493 0.495175 67.7982 0.727867 68.0932 1.02047C68.3886 1.31356 68.6163 1.64081 68.776 2.00173C68.9357 2.36414 69.0158 2.73397 69.0158 3.11321C69.0158 3.6989 68.8483 4.23707 68.5144 4.7277C68.1805 5.21883 67.7275 5.57233 67.1571 5.7867L69.5094 9.236H67.3029L65.1827 6.16198H63.1783V9.236H61.1749V9.23649ZM63.1783 4.59898H65.6908C66.0681 4.59898 66.3803 4.45491 66.6274 4.16627C66.8739 3.87763 66.998 3.52661 66.998 3.11371C66.998 2.82903 66.9301 2.57554 66.7949 2.35127C66.6591 2.12749 66.4871 1.95074 66.279 1.82152C66.0709 1.6928 65.8461 1.62794 65.604 1.62794H63.1794V4.59898H63.1783Z" fill="white"/>
<path d="M78.4243 1.62844H75.1283V9.23699H73.1394V1.62844H69.8428V0.0649414H78.4243V1.62844Z" fill="white"/>
<path d="M56.7492 12H52.4587V10.4365H56.7492V12Z" fill="white"/>
<path d="M97.9902 7.67399V9.23649H79.7019V0.0649414H97.8589V1.62844H81.7053V3.83703H97.1767V5.28418H81.7053V7.67399H97.9902Z" fill="white"/>
<path d="M106.751 2.46753C106.664 2.38188 106.48 2.26702 106.199 2.12542C105.919 1.98333 105.583 1.85411 105.19 1.73777C104.798 1.62093 104.394 1.563 103.977 1.563C102.884 1.563 102.337 1.90758 102.337 2.59625C102.337 2.84578 102.424 3.04381 102.599 3.19036C102.772 3.33691 103.034 3.46217 103.383 3.56515C103.731 3.66862 104.166 3.78051 104.689 3.90131C105.367 4.05627 105.954 4.23698 106.453 4.44344C106.952 4.65038 107.334 4.92367 107.601 5.2643C107.867 5.60442 108.001 6.05396 108.001 6.61441C108.001 7.26842 107.824 7.79668 107.471 8.19671C107.117 8.59675 106.65 8.88786 106.069 9.06906C105.489 9.24977 104.859 9.34037 104.181 9.34037C103.406 9.34037 102.639 9.23492 101.88 9.02302C101.12 8.81261 100.445 8.52149 99.8541 8.15166L100.739 6.61441C100.826 6.69213 100.982 6.79264 101.204 6.9179C101.427 7.04266 101.698 7.16742 102.017 7.29218C102.337 7.41744 102.685 7.5229 103.063 7.60904C103.441 7.69519 103.823 7.73826 104.21 7.73826C105.313 7.73826 105.866 7.42338 105.866 6.79511C105.866 6.52777 105.755 6.3129 105.532 6.14902C105.309 5.98515 104.996 5.84751 104.595 5.73562C104.193 5.62373 103.726 5.49847 103.194 5.36084C102.535 5.19696 101.99 5.01427 101.56 4.81228C101.129 4.60979 100.806 4.35531 100.594 4.04984C100.381 3.74387 100.275 3.35473 100.275 2.88093C100.275 2.25217 100.442 1.72489 100.775 1.29862C101.11 0.872349 101.562 0.54955 102.133 0.329235C102.704 0.10991 103.339 0 104.036 0C104.752 0 105.42 0.103474 106.039 0.309927C106.659 0.516379 107.192 0.753527 107.637 1.02038L106.751 2.46753Z" fill="white"/>
</g>
<defs>
<clipPath id="clip0">
<rect width="108" height="12" fill="white"/>
</clipPath>
</defs>
</svg>
