<svg width="33" height="36" viewBox="0 0 33 36" fill="none" xmlns="http://www.w3.org/2000/svg">
<path d="M33 12.4139C33 9.92937 28.5745 8.31105 22.9955 7.61767L21.742 2.4197C21.7083 2.28016 21.6403 2.15099 21.5442 2.04428C21.4577 1.94837 19.4403 0.184037 16.5002 0C13.5601 0.184037 11.5423 1.94837 11.4558 2.04428C11.3597 2.15099 11.2917 2.28016 11.258 2.4197L10.0045 7.61767C4.42554 8.31105 0 9.92937 0 12.4139C0 14.5558 3.29069 16.0549 7.77336 16.8714L6.13646 23.66C6.07413 23.9175 6.13386 24.1888 6.29833 24.397C6.46236 24.6048 6.71296 24.7262 6.97828 24.7262H14.9131C15.3909 24.7262 15.7787 24.3391 15.7787 23.8622C15.7787 23.3852 15.3909 22.9982 14.9131 22.9982H8.07677L9.48861 17.1427C11.467 17.4127 13.6068 17.557 15.7575 17.5855V15.8635C13.5566 15.8354 11.5986 15.6859 9.89459 15.4583L11.4047 9.19538C12.9338 9.04633 14.6326 8.9582 16.4998 8.9582C18.3669 8.9582 20.0657 9.04633 21.5949 9.19538L23.105 15.4583C21.3958 15.6868 19.4308 15.8363 17.2213 15.8635V17.5855C19.3793 17.5578 21.5265 17.4135 23.5114 17.1427L24.9232 22.9982H18.0873C17.6095 22.9982 17.2217 23.3852 17.2217 23.8622C17.2217 24.3391 17.6095 24.7262 18.0873 24.7262H26.0222C26.2875 24.7262 26.5381 24.6048 26.7021 24.397C26.8661 24.1892 26.9259 23.9175 26.864 23.66L25.2271 16.8714C29.7097 16.0549 33 14.5562 33 12.4139ZM8.17891 15.19C3.96199 14.4227 1.73126 13.1811 1.73126 12.4139C1.73126 11.5663 4.45497 10.1393 9.57171 9.41311L8.17891 15.19ZM16.5002 7.23059C14.9278 7.23059 13.3524 7.29668 11.8314 7.42672L12.8853 3.05562C13.3169 2.6383 14.6932 1.88444 16.5002 1.72934C18.3072 1.88444 19.6836 2.6383 20.1151 3.05562L21.169 7.42672C19.6481 7.29668 18.0726 7.23059 16.5002 7.23059ZM24.8211 15.19L23.4283 9.41354C28.545 10.1398 31.2687 11.5667 31.2687 12.4143C31.2687 13.1811 29.038 14.4227 24.8211 15.19Z" fill="white"/>
<path d="M13.7466 26.4539C14.2244 26.4539 14.6122 26.8686 14.6122 27.3801V35.0738C14.6122 35.5853 14.2244 36 13.7466 36C13.2688 36 12.881 35.5853 12.881 35.0738V27.3801C12.881 26.8686 13.2688 26.4539 13.7466 26.4539Z" fill="white"/>
<path d="M18.9403 26.4539C19.4182 26.4539 19.806 26.8686 19.806 27.3801V35.0738C19.806 35.5853 19.4182 36 18.9403 36C18.4625 36 18.0747 35.5853 18.0747 35.0738V27.3801C18.0747 26.8686 18.4625 26.4539 18.9403 26.4539Z" fill="white"/>
<path d="M8.55276 26.4543C9.03059 26.4543 9.41839 26.8691 9.41839 27.3806V33.3462C9.41839 33.8577 9.03059 34.2725 8.55276 34.2725C8.07494 34.2725 7.68713 33.8577 7.68713 33.3462V27.3806C7.68713 26.8691 8.07494 26.4543 8.55276 26.4543Z" fill="white"/>
<path d="M24.1342 26.4539C24.612 26.4539 24.9998 26.8686 24.9998 27.3801V33.3458C24.9998 33.8573 24.612 34.272 24.1342 34.272C23.6564 34.272 23.2686 33.8573 23.2686 33.3458V27.3801C23.2686 26.8686 23.6564 26.4539 24.1342 26.4539Z" fill="white"/>
</svg>
