<?xml version="1.0" encoding="utf-8"?>
<!-- Generator: Adobe Illustrator 16.0.2, SVG Export Plug-In . SVG Version: 6.00 Build 0)  -->
<!DOCTYPE svg PUBLIC "-//W3C//DTD SVG 1.1//EN" "http://www.w3.org/Graphics/SVG/1.1/DTD/svg11.dtd">
<svg version="1.1" id="Layer_1" xmlns="http://www.w3.org/2000/svg" xmlns:xlink="http://www.w3.org/1999/xlink" x="0px" y="0px"
	 width="116.515px" height="35.912px" viewBox="69.75 221.602 116.515 35.912"
	 enable-background="new 69.75 221.602 116.515 35.912" xml:space="preserve">
<g>
	<path d="M136.934,248.137c0,1.831-0.463,3.427-1.396,4.79c-0.93,1.363-2.185,2.428-3.764,3.189
		c-1.583,0.769-3.319,1.148-5.212,1.148H69.75v-35.411h57.608c1.664,0,3.102,0.438,4.314,1.318c1.213,0.882,2.144,2.014,2.793,3.395
		c0.649,1.38,0.975,2.817,0.975,4.314c0,1.729-0.442,3.349-1.323,4.861c-0.882,1.516-2.136,2.635-3.768,3.366
		c2.029,0.601,3.633,1.705,4.814,3.315C136.345,244.041,136.934,245.946,136.934,248.137z M74.24,225.743v11.82h51.271
		c1.563,0,2.869-0.572,3.916-1.721c1.048-1.146,1.571-2.533,1.571-4.165c0-1.66-0.491-3.065-1.47-4.214
		c-0.982-1.148-2.221-1.723-3.719-1.723H74.24V225.743z M132.395,247.343c0-1.101-0.24-2.111-0.723-3.046
		c-0.482-0.93-1.133-1.676-1.944-2.243c-0.814-0.563-1.754-0.849-2.816-0.849H74.24v12.174h52.322c1.097,0,2.086-0.284,2.968-0.851
		c0.882-0.567,1.578-1.307,2.095-2.22C132.14,249.395,132.395,248.406,132.395,247.343z"/>
	<path d="M142.219,257.266v-35.412h4.489v35.412H142.219z"/>
	<path d="M169.552,257.514c-2.491,0-4.752-0.495-6.782-1.494c-2.028-0.998-3.783-2.354-5.261-4.065
		c-1.481-1.711-2.618-3.643-3.418-5.785c-0.795-2.145-1.197-4.349-1.197-6.608c0-2.363,0.426-4.615,1.274-6.759
		c0.844-2.147,2.024-4.06,3.539-5.735c1.515-1.681,3.285-3.012,5.313-3.99c2.025-0.983,4.238-1.475,6.633-1.475
		c2.492,0,4.754,0.516,6.782,1.546c2.03,1.031,3.775,2.411,5.237,4.142c1.466,1.729,2.594,3.657,3.393,5.785
		c0.802,2.131,1.198,4.307,1.198,6.534c0,2.362-0.419,4.615-1.246,6.76c-0.833,2.144-2.006,4.06-3.52,5.734
		c-1.511,1.682-3.284,3.004-5.312,3.967C174.161,257.035,171.947,257.514,169.552,257.514z M157.432,239.56
		c0,1.794,0.292,3.531,0.872,5.212c0.585,1.681,1.405,3.167,2.473,4.465c1.063,1.296,2.344,2.327,3.842,3.091
		c1.497,0.768,3.157,1.147,4.987,1.147c1.896,0,3.588-0.397,5.086-1.197c1.497-0.796,2.77-1.858,3.815-3.19
		c1.048-1.332,1.848-2.824,2.396-4.488c0.549-1.665,0.823-3.342,0.823-5.038c0-1.798-0.291-3.523-0.872-5.188
		c-0.585-1.664-1.417-3.15-2.497-4.465c-1.079-1.313-2.361-2.348-3.839-3.095c-1.481-0.747-3.118-1.12-4.912-1.12
		c-1.896,0-3.593,0.391-5.091,1.169c-1.493,0.784-2.768,1.839-3.814,3.171c-1.049,1.327-1.852,2.816-2.419,4.465
		C157.717,236.142,157.432,237.831,157.432,239.56z"/>
</g>
</svg>
