<?xml version="1.0" encoding="utf-8"?>
<!-- Generator: Adobe Illustrator 16.0.2, SVG Export Plug-In . SVG Version: 6.00 Build 0)  -->
<!DOCTYPE svg PUBLIC "-//W3C//DTD SVG 1.1//EN" "http://www.w3.org/Graphics/SVG/1.1/DTD/svg11.dtd">
<svg version="1.1" id="Layer_1" xmlns="http://www.w3.org/2000/svg" xmlns:xlink="http://www.w3.org/1999/xlink" x="0px" y="0px"
	 width="297.118px" height="36.063px" viewBox="-20.552 320.581 297.118 36.063"
	 enable-background="new -20.552 320.581 297.118 36.063" xml:space="preserve">
<g>
	<path d="M-20.552,338.313c0-2.165,0.374-4.288,1.126-6.37c0.748-2.08,1.846-3.978,3.297-5.692c1.446-1.715,3.219-3.08,5.316-4.097
		c2.097-1.016,4.479-1.522,7.146-1.522c3.161,0,5.873,0.724,8.142,2.172c2.264,1.448,3.943,3.305,5.044,5.569l-3.549,2.299
		c-0.698-1.5-1.588-2.688-2.67-3.573c-1.086-0.882-2.248-1.506-3.496-1.871c-1.251-0.365-2.475-0.551-3.674-0.551
		c-1.964,0-3.703,0.4-5.22,1.199s-2.787,1.865-3.82,3.196c-1.032,1.333-1.804,2.822-2.319,4.472
		c-0.518,1.647-0.778,3.305-0.778,4.969c0,1.831,0.31,3.596,0.928,5.295c0.612,1.699,1.472,3.196,2.573,4.495
		c1.098,1.299,2.394,2.331,3.894,3.097c1.5,0.769,3.13,1.148,4.894,1.148c1.232,0,2.5-0.217,3.797-0.65
		c1.301-0.431,2.517-1.104,3.646-2.021c1.134-0.914,2.032-2.105,2.699-3.57l3.743,2.047c-0.731,1.767-1.865,3.265-3.394,4.494
		c-1.533,1.234-3.24,2.165-5.122,2.799c-1.883,0.634-3.735,0.947-5.568,0.947c-2.431,0-4.663-0.522-6.691-1.573
		c-2.034-1.05-3.79-2.446-5.274-4.194c-1.479-1.748-2.63-3.713-3.446-5.896C-20.146,342.751-20.552,340.543-20.552,338.313z"/>
	<path d="M93.304,329.123v27.171h-4.496v-35.463h3.798l21.678,27.721v-27.67h4.496v35.413h-4.096L93.304,329.123z"/>
	<path d="M152.847,324.827h-12.24v31.468h-4.496v-31.468h-12.234v-3.996h28.971V324.827L152.847,324.827z"/>
	<path d="M165.386,320.831h3.797l14.48,35.463h-4.795l-4.193-10.39h-14.887l-4.143,10.39h-4.797L165.386,320.831z M173.676,342.41
		l-6.391-16.384l-6.594,16.384H173.676z"/>
	<path d="M210.636,324.827h-12.24v31.468H193.9v-31.468h-12.234v-3.996h28.971V324.827L210.636,324.827z"/>
	<path d="M229.066,356.544c-2.496,0-4.76-0.5-6.793-1.498c-2.033-1-3.787-2.355-5.268-4.07c-1.484-1.716-2.623-3.646-3.424-5.795
		c-0.797-2.147-1.197-4.354-1.197-6.617c0-2.365,0.426-4.622,1.275-6.77c0.846-2.146,2.027-4.062,3.543-5.744
		c1.518-1.681,3.289-3.012,5.322-3.996c2.029-0.98,4.244-1.473,6.643-1.473c2.496,0,4.762,0.517,6.793,1.549
		s3.779,2.415,5.244,4.146c1.467,1.732,2.598,3.663,3.396,5.795c0.801,2.13,1.199,4.312,1.199,6.542
		c0,2.364-0.418,4.618-1.248,6.768c-0.832,2.148-2.008,4.063-3.523,5.744c-1.512,1.683-3.289,3.006-5.316,3.972
		C233.679,356.061,231.465,356.544,229.066,356.544z M216.929,338.563c0,1.798,0.291,3.539,0.873,5.22
		c0.584,1.682,1.406,3.171,2.475,4.47c1.066,1.298,2.346,2.331,3.846,3.098c1.5,0.768,3.162,1.147,4.996,1.147
		c1.898,0,3.594-0.398,5.094-1.199c1.5-0.799,2.771-1.863,3.82-3.193c1.049-1.334,1.852-2.832,2.398-4.496
		c0.549-1.666,0.824-3.348,0.824-5.045c0-1.799-0.293-3.529-0.873-5.194c-0.586-1.665-1.42-3.157-2.5-4.472
		c-1.082-1.314-2.365-2.348-3.848-3.098c-1.48-0.748-3.119-1.124-4.918-1.124c-1.896,0-3.596,0.392-5.098,1.175
		c-1.494,0.782-2.77,1.838-3.82,3.172c-1.049,1.331-1.854,2.821-2.422,4.47C217.215,335.14,216.929,336.832,216.929,338.563z"/>
	<path d="M272.873,328.273c-0.834-0.933-2.117-1.78-3.85-2.548c-1.73-0.765-3.662-1.148-5.793-1.148
		c-2.73,0-4.742,0.517-6.043,1.548c-1.297,1.033-1.949,2.448-1.949,4.247c0,1.266,0.334,2.264,1.002,2.998
		c0.662,0.73,1.688,1.331,3.068,1.796c1.381,0.468,3.139,0.949,5.271,1.449c2.465,0.532,4.594,1.184,6.395,1.948
		c1.797,0.767,3.178,1.789,4.145,3.07c0.965,1.283,1.447,2.99,1.447,5.121c0,2.264-0.568,4.129-1.697,5.593
		c-1.131,1.468-2.672,2.548-4.623,3.247c-1.947,0.699-4.139,1.049-6.564,1.049c-5.527,0-10.34-1.664-14.438-4.996l2.15-3.794
		c0.732,0.731,1.723,1.465,2.971,2.196c1.248,0.734,2.68,1.342,4.297,1.824c1.615,0.482,3.32,0.724,5.117,0.724
		c2.533,0,4.496-0.458,5.895-1.372c1.398-0.917,2.098-2.256,2.098-4.021c0-1.332-0.391-2.396-1.174-3.197
		c-0.781-0.799-1.939-1.464-3.473-1.998c-1.527-0.533-3.395-1.063-5.594-1.598c-2.396-0.601-4.41-1.256-6.043-1.976
		c-1.631-0.715-2.854-1.654-3.672-2.819c-0.816-1.166-1.223-2.682-1.223-4.546c0-2.265,0.547-4.18,1.648-5.743
		c1.1-1.565,2.615-2.748,4.545-3.547c1.932-0.8,4.111-1.2,6.547-1.2c2.361,0,4.52,0.368,6.467,1.1
		c1.945,0.731,3.67,1.715,5.17,2.947L272.873,328.273z"/>
	<g>
		<path fill="none" d="M78.211,338.802v0.15c0,1.689-0.182,3.34-0.53,4.96c-0.34,1.609-0.91,3.08-1.71,4.38
			c-0.79,1.31-1.859,2.35-3.22,3.12c-1.351,0.779-3.04,1.17-5.08,1.17v-0.05h-40.01c-1.591-0.12-2.95-0.48-4.061-1.12
			c-1.359-0.771-2.43-1.811-3.22-3.12c-0.8-1.3-1.37-2.771-1.71-4.38c-0.351-1.62-0.53-3.271-0.53-4.96v-0.15
			c0-1.68,0.18-3.33,0.53-4.95c0.34-1.62,0.91-3.08,1.71-4.39c0.79-1.3,1.86-2.35,3.22-3.12c1.351-0.78,3.04-1.16,5.08-1.16v0.05
			h40.021c1.578,0.11,2.938,0.471,4.05,1.11c1.358,0.771,2.43,1.82,3.22,3.12c0.801,1.31,1.37,2.77,1.71,4.39
			C78.03,335.472,78.211,337.123,78.211,338.802z"/>
		<path d="M81.85,332.042c-0.55-2.13-1.41-4.01-2.6-5.63c-0.32-0.431-0.67-0.84-1.04-1.221c-1.011-1.05-2.21-1.93-3.601-2.619
			c-1.619-0.801-3.551-1.24-5.761-1.36v-0.05h-40.17v0.01l-0.03-0.01c-2.71,0-5.01,0.47-6.909,1.41
			c-1.391,0.689-2.591,1.569-3.601,2.619c-0.37,0.381-0.72,0.79-1.04,1.221c-1.18,1.62-2.05,3.5-2.6,5.63
			c-0.54,2.13-0.811,4.38-0.811,6.76v0.15c0,2.38,0.271,4.63,0.811,6.77c0.55,2.13,1.42,4,2.6,5.62c0.32,0.43,0.67,0.84,1.04,1.23
			c1.01,1.05,2.21,1.92,3.601,2.609c1.619,0.8,3.56,1.24,5.77,1.36v0.05h40.189c2.711,0,5.011-0.47,6.91-1.41
			c1.391-0.689,2.59-1.56,3.601-2.609c0.37-0.391,0.72-0.801,1.04-1.23c1.18-1.62,2.05-3.49,2.6-5.62c0.54-2.14,0.82-4.39,0.82-6.77
			v-0.15C82.671,336.422,82.39,334.172,81.85,332.042z M78.211,338.953c0,1.689-0.182,3.34-0.53,4.96
			c-0.34,1.609-0.91,3.08-1.71,4.38c-0.79,1.31-1.859,2.35-3.22,3.12c-1.351,0.779-3.04,1.17-5.08,1.17v-0.05h-40.01
			c-1.591-0.12-2.95-0.48-4.061-1.12c-1.359-0.771-2.43-1.811-3.22-3.12c-0.8-1.3-1.37-2.771-1.71-4.38
			c-0.351-1.62-0.53-3.271-0.53-4.96v-0.15c0-1.68,0.18-3.33,0.53-4.95c0.34-1.62,0.91-3.08,1.71-4.39c0.79-1.3,1.86-2.35,3.22-3.12
			c1.351-0.78,3.04-1.16,5.08-1.16v0.05h40.021c1.578,0.11,2.938,0.471,4.05,1.11c1.358,0.771,2.43,1.82,3.22,3.12
			c0.801,1.31,1.37,2.77,1.71,4.39c0.351,1.62,0.53,3.271,0.53,4.95V338.953z"/>
	</g>
</g>
</svg>
