<?xml version="1.0" encoding="utf-8"?>
<!-- Generator: Adobe Illustrator 16.0.2, SVG Export Plug-In . SVG Version: 6.00 Build 0)  -->
<!DOCTYPE svg PUBLIC "-//W3C//DTD SVG 1.1//EN" "http://www.w3.org/Graphics/SVG/1.1/DTD/svg11.dtd">
<svg version="1.1" id="Layer_1" xmlns="http://www.w3.org/2000/svg" xmlns:xlink="http://www.w3.org/1999/xlink" x="0px" y="0px"
	 width="221.096px" height="44.282px" viewBox="17.459 23.562 221.096 44.282"
	 enable-background="new 17.459 23.562 221.096 44.282" xml:space="preserve">
<g>
	<g>
		<path d="M47.884,58.992V32.135L36.288,52.797h-2.725L21.918,32.135V58.99h-4.459V23.81h4.707l12.734,22.842L47.686,23.81h4.657
			v35.182H47.884z"/>
		<path d="M154.022,31.193c-0.826-0.925-2.1-1.768-3.816-2.526c-1.719-0.761-3.635-1.142-5.748-1.142
			c-2.709,0-4.707,0.515-5.994,1.537c-1.289,1.023-1.934,2.428-1.934,4.212c0,1.255,0.33,2.247,0.99,2.974
			c0.662,0.728,1.676,1.321,3.049,1.783c1.371,0.464,3.111,0.941,5.227,1.437c2.443,0.529,4.561,1.174,6.344,1.934
			c1.783,0.762,3.154,1.775,4.111,3.047c0.959,1.272,1.438,2.967,1.438,5.08c0,2.246-0.563,4.097-1.684,5.55
			c-1.123,1.453-2.65,2.526-4.584,3.222c-1.934,0.693-4.105,1.04-6.518,1.04c-5.482,0-10.256-1.651-14.32-4.955l2.131-3.766
			c0.729,0.727,1.711,1.453,2.949,2.18s2.658,1.33,4.262,1.81c1.602,0.479,3.295,0.719,5.078,0.719c2.512,0,4.461-0.454,5.848-1.363
			c1.389-0.906,2.082-2.236,2.082-3.988c0-1.32-0.391-2.378-1.164-3.171c-0.777-0.793-1.926-1.454-3.443-1.983
			c-1.521-0.526-3.371-1.057-5.551-1.584c-2.379-0.596-4.377-1.245-5.996-1.957c-1.617-0.711-2.832-1.645-3.641-2.801
			c-0.813-1.154-1.217-2.658-1.217-4.509c0-2.247,0.547-4.146,1.639-5.698c1.088-1.553,2.592-2.725,4.508-3.518
			c1.914-0.796,4.078-1.192,6.49-1.192c2.346,0,4.484,0.363,6.416,1.089c1.934,0.728,3.643,1.702,5.129,2.925L154.022,31.193z"/>
		<path d="M163.534,58.992V23.81h4.459v35.182H163.534z"/>
		<path d="M174.137,41.152c0-2.146,0.371-4.252,1.115-6.316c0.744-2.063,1.832-3.947,3.271-5.649c1.438-1.7,3.195-3.054,5.277-4.063
			c2.08-1.007,4.441-1.513,7.084-1.513c3.141,0,5.83,0.72,8.076,2.155c2.248,1.438,3.916,3.279,5.006,5.524l-3.518,2.278
			c-0.695-1.485-1.578-2.666-2.652-3.541c-1.072-0.875-2.229-1.494-3.467-1.858c-1.24-0.363-2.453-0.545-3.643-0.545
			c-1.949,0-3.676,0.396-5.18,1.188c-1.502,0.793-2.768,1.853-3.791,3.172c-1.023,1.32-1.793,2.8-2.305,4.436
			c-0.512,1.634-0.768,3.277-0.768,4.931c0,1.816,0.305,3.566,0.918,5.252c0.609,1.686,1.461,3.171,2.551,4.459
			c1.09,1.289,2.379,2.313,3.865,3.072c1.486,0.761,3.104,1.141,4.855,1.141c1.223,0,2.479-0.215,3.766-0.645
			c1.289-0.429,2.496-1.099,3.617-2.008c1.123-0.907,2.016-2.088,2.678-3.542l3.715,2.031c-0.727,1.751-1.85,3.237-3.369,4.459
			c-1.52,1.223-3.213,2.148-5.078,2.775c-1.867,0.627-3.709,0.941-5.523,0.941c-2.414,0-4.627-0.521-6.643-1.563
			c-2.014-1.039-3.758-2.427-5.227-4.161c-1.471-1.734-2.611-3.683-3.42-5.847C174.542,45.554,174.137,43.367,174.137,41.152z"/>
		<path d="M220.419,23.81h3.766l14.371,35.182h-4.76l-4.16-10.309h-14.768l-4.113,10.309h-4.756L220.419,23.81z M228.645,45.216
			L222.3,28.963l-6.539,16.253H228.645z"/>
		<path d="M119.448,23.81v17.789c0,1.686-0.174,3.337-0.521,4.956c-0.346,1.617-0.916,3.08-1.709,4.385
			c-0.793,1.306-1.865,2.347-3.221,3.121c-1.352,0.775-3.047,1.162-5.088,1.164v-0.051H68.898c-1.583-0.113-2.944-0.475-4.059-1.113
			c-1.354-0.774-2.429-1.815-3.221-3.121c-0.793-1.305-1.363-2.768-1.71-4.385c-0.347-1.619-0.521-3.271-0.521-4.956V23.81h-4.459
			v17.789c0,2.379,0.271,4.633,0.816,6.764c0.545,2.133,1.412,4.008,2.602,5.624c1.189,1.619,2.733,2.898,4.634,3.841
			c1.621,0.804,3.557,1.242,5.767,1.359v0.052h40.162v-0.004l0.034,0.004c2.708,0,5.012-0.471,6.913-1.411
			c1.898-0.941,3.441-2.222,4.633-3.841c1.188-1.616,2.057-3.491,2.602-5.624c0.545-2.131,0.816-4.385,0.816-6.764V23.81H119.448z"
			/>
	</g>
	<path d="M84.304,63.34h8.59v4.505h-8.59V63.34z"/>
</g>
</svg>
