<?xml version="1.0" encoding="utf-8"?>
<!-- Generator: Adobe Illustrator 16.0.2, SVG Export Plug-In . SVG Version: 6.00 Build 0)  -->
<!DOCTYPE svg PUBLIC "-//W3C//DTD SVG 1.1//EN" "http://www.w3.org/Graphics/SVG/1.1/DTD/svg11.dtd">
<svg version="1.1" id="Layer_1" xmlns="http://www.w3.org/2000/svg" xmlns:xlink="http://www.w3.org/1999/xlink" x="0px" y="0px"
	 width="416.72px" height="45.091px" viewBox="-80.353 -80.148 416.72 45.091"
	 enable-background="new -80.353 -80.148 416.72 45.091" xml:space="preserve">
<g>
	<g>
		<path d="M-80.353-44.364v-35.533h14.811c1.568,0,3.004,0.326,4.305,0.977c1.304,0.65,2.437,1.519,3.404,2.603
			c0.967,1.086,1.719,2.304,2.252,3.653c0.533,1.352,0.799,2.729,0.799,4.129c0,1.937-0.434,3.777-1.301,5.529
			c-0.867,1.753-2.084,3.171-3.652,4.253c-1.567,1.086-3.401,1.628-5.504,1.628h-10.609v12.762H-80.353z M-75.849-61.129h10.356
			c1.234,0,2.312-0.334,3.229-1c0.918-0.669,1.635-1.568,2.151-2.704c0.519-1.133,0.775-2.369,0.775-3.703
			c0-1.4-0.301-2.661-0.9-3.778c-0.599-1.116-1.387-1.994-2.354-2.627c-0.967-0.634-2.033-0.951-3.201-0.951h-10.058V-61.129z"/>
		<path d="M-34.515-44.114c-2.836,0-5.224-0.492-7.156-1.477c-1.937-0.984-3.486-2.319-4.654-4.003
			c-1.168-1.685-2.02-3.596-2.553-5.73c-0.533-2.134-0.801-4.338-0.801-6.604v-17.968h4.504v17.968c0,1.733,0.176,3.427,0.524,5.077
			c0.353,1.652,0.929,3.129,1.728,4.43c0.801,1.302,1.885,2.336,3.252,3.104c1.369,0.769,3.072,1.15,5.104,1.15
			c2.07,0,3.785-0.392,5.154-1.174c1.369-0.785,2.453-1.836,3.254-3.154s1.377-2.794,1.728-4.43
			c0.352-1.634,0.524-3.304,0.524-5.003v-17.968h4.504v17.968c0,2.399-0.272,4.68-0.825,6.83c-0.55,2.15-1.427,4.046-2.628,5.681
			c-1.2,1.635-2.762,2.928-4.68,3.877C-29.453-44.59-31.78-44.114-34.515-44.114z"/>
		<path d="M57.584-53.523c0,1.836-0.469,3.437-1.402,4.806c-0.934,1.368-2.194,2.436-3.778,3.204
			c-1.584,0.768-3.326,1.149-5.229,1.149h-58.567v-35.533h59.368c1.668,0,3.111,0.442,4.328,1.326
			c1.22,0.886,2.152,2.021,2.804,3.402c0.649,1.387,0.977,2.828,0.977,4.329c0,1.733-0.443,3.361-1.328,4.879
			c-0.883,1.52-2.143,2.646-3.777,3.378c2.035,0.602,3.646,1.711,4.828,3.33C56.99-57.632,57.584-55.724,57.584-53.523z
			 M-6.89-75.992v11.858h53.014c1.568,0,2.877-0.574,3.928-1.726s1.576-2.545,1.576-4.178c0-1.67-0.492-3.079-1.477-4.229
			c-0.982-1.15-2.226-1.728-3.729-1.728L-6.89-75.992L-6.89-75.992z M53.028-54.324c0-1.1-0.242-2.117-0.726-3.053
			c-0.483-0.934-1.135-1.685-1.951-2.252c-0.817-0.566-1.76-0.851-2.827-0.851H-6.89v12.21h54.063c1.103,0,2.094-0.282,2.978-0.852
			c0.885-0.565,1.584-1.309,2.104-2.225C52.769-52.263,53.028-53.255,53.028-54.324z"/>
		<path d="M59.375-44.364v-35.533h4.504v31.528h19.818v4.004L59.375-44.364L59.375-44.364z"/>
		<path d="M88.599-44.364v-35.533h4.507v35.533H88.599L88.599-44.364z"/>
		<path d="M99.308-62.38c0-2.168,0.377-4.297,1.127-6.382c0.753-2.085,1.854-3.984,3.304-5.703c1.451-1.72,3.229-3.088,5.33-4.105
			c2.102-1.017,4.485-1.524,7.155-1.524c3.17,0,5.89,0.725,8.158,2.177c2.269,1.45,3.953,3.312,5.053,5.579l-3.553,2.304
			c-0.701-1.503-1.592-2.694-2.676-3.58c-1.086-0.884-2.252-1.509-3.504-1.876c-1.25-0.366-2.478-0.551-3.678-0.551
			c-1.97,0-3.713,0.399-5.23,1.201c-1.518,0.8-2.795,1.869-3.826,3.203c-1.035,1.335-1.811,2.827-2.328,4.479
			c-0.517,1.651-0.774,3.312-0.774,4.979c0,1.834,0.307,3.602,0.926,5.304c0.617,1.702,1.477,3.203,2.576,4.504
			c1.102,1.302,2.401,2.336,3.901,3.104c1.503,0.769,3.138,1.15,4.906,1.15c1.234,0,2.5-0.217,3.804-0.65
			c1.301-0.432,2.518-1.107,3.651-2.026c1.135-0.916,2.037-2.109,2.703-3.577l3.754,2.05c-0.733,1.771-1.869,3.271-3.402,4.505
			c-1.534,1.236-3.245,2.169-5.133,2.805c-1.883,0.633-3.744,0.948-5.578,0.948c-2.436,0-4.672-0.524-6.705-1.575
			c-2.034-1.052-3.797-2.452-5.28-4.204c-1.484-1.751-2.635-3.721-3.451-5.905C99.719-57.935,99.308-60.147,99.308-62.38z"/>
		<path d="M146.051-79.897h3.803l14.515,35.533h-4.805l-4.201-10.411h-14.914l-4.154,10.411h-4.805L146.051-79.897z M154.36-58.278
			l-6.406-16.414l-6.607,16.414H154.36z"/>
		<path d="M165.519-62.38c0-2.168,0.378-4.297,1.128-6.382s1.852-3.984,3.303-5.703c1.451-1.72,3.229-3.088,5.33-4.105
			c2.102-1.017,4.485-1.524,7.155-1.524c3.171,0,5.89,0.725,8.156,2.177c2.271,1.45,3.955,3.312,5.056,5.579l-3.554,2.304
			c-0.701-1.503-1.592-2.694-2.676-3.58c-1.086-0.884-2.252-1.509-3.504-1.876c-1.252-0.366-2.478-0.551-3.678-0.551
			c-1.972,0-3.713,0.399-5.23,1.201c-1.518,0.8-2.795,1.869-3.828,3.203c-1.033,1.335-1.811,2.827-2.326,4.479
			c-0.518,1.651-0.776,3.312-0.776,4.979c0,1.834,0.309,3.602,0.928,5.304c0.617,1.702,1.477,3.203,2.576,4.504
			c1.102,1.302,2.401,2.336,3.902,3.104c1.502,0.769,3.137,1.15,4.905,1.15c1.234,0,2.5-0.217,3.801-0.65
			c1.304-0.432,2.521-1.107,3.654-2.026c1.133-0.916,2.035-2.109,2.703-3.577l3.754,2.05c-0.736,1.771-1.869,3.271-3.402,4.505
			c-1.534,1.236-3.245,2.169-5.133,2.805c-1.883,0.633-3.744,0.948-5.578,0.948c-2.436,0-4.672-0.524-6.707-1.575
			c-2.032-1.052-3.795-2.452-5.278-4.204c-1.484-1.751-2.635-3.721-3.451-5.905C165.929-57.935,165.519-60.147,165.519-62.38z
			 M181.635-35.057c-0.867,0-1.811-0.115-2.828-0.351c-1.017-0.235-2.01-0.584-2.977-1.051l1.201-2.451
			c0.666,0.332,1.293,0.6,1.877,0.799c0.582,0.201,1.242,0.301,1.975,0.301c1.035,0,1.836-0.209,2.404-0.625
			c0.565-0.418,0.85-1.026,0.85-1.827c0-0.832-0.293-1.566-0.875-2.201c-0.584-0.635-1.41-1.269-2.479-1.9l1.604-1.149
			c1.365,0.832,2.468,1.698,3.304,2.602c0.832,0.9,1.25,2.035,1.25,3.402c0,1.366-0.47,2.45-1.4,3.252
			C184.603-35.455,183.302-35.057,181.635-35.057z"/>
		<path d="M215.965-44.114c-2.502,0-4.771-0.502-6.805-1.5c-2.037-1.002-3.797-2.362-5.281-4.081
			c-1.484-1.718-2.627-3.651-3.428-5.805s-1.201-4.362-1.201-6.63c0-2.37,0.424-4.631,1.275-6.784
			c0.852-2.149,2.034-4.067,3.555-5.754c1.516-1.686,3.293-3.019,5.328-4.003c2.037-0.984,4.254-1.478,6.656-1.478
			c2.504,0,4.771,0.519,6.807,1.552c2.035,1.034,3.787,2.42,5.256,4.153c1.468,1.735,2.603,3.67,3.402,5.807
			c0.799,2.135,1.201,4.32,1.201,6.556c0,2.369-0.418,4.628-1.252,6.78c-0.834,2.151-2.011,4.069-3.527,5.755
			c-1.52,1.687-3.295,3.011-5.332,3.979C220.586-44.596,218.365-44.114,215.965-44.114z M203.804-62.129
			c0,1.8,0.291,3.545,0.875,5.229c0.582,1.685,1.41,3.178,2.478,4.479c1.067,1.302,2.354,2.336,3.854,3.104
			c1.5,0.769,3.168,1.15,5.002,1.15c1.902,0,3.605-0.398,5.105-1.201c1.5-0.8,2.777-1.867,3.828-3.201
			c1.051-1.335,1.854-2.837,2.402-4.504c0.551-1.668,0.825-3.354,0.825-5.054c0-1.803-0.293-3.538-0.877-5.205
			c-0.584-1.668-1.416-3.163-2.5-4.48c-1.086-1.316-2.37-2.352-3.854-3.104c-1.484-0.749-3.127-1.125-4.931-1.125
			c-1.899,0-3.602,0.393-5.104,1.176c-1.502,0.785-2.777,1.844-3.828,3.18c-1.051,1.333-1.861,2.826-2.426,4.479
			C204.088-65.559,203.804-63.865,203.804-62.129z"/>
		<path d="M304.811-48.368v4.004h-65.824v-35.533h65.373v4.004h-60.869v11.512h58.369v3.753h-58.369v12.261H304.811L304.811-48.368z
			"/>
		<path d="M332.666-72.44c-0.834-0.935-2.117-1.782-3.854-2.553c-1.734-0.766-3.67-1.151-5.806-1.151
			c-2.735,0-4.754,0.519-6.057,1.553c-1.301,1.035-1.949,2.451-1.949,4.254c0,1.269,0.33,2.269,0.998,3.004
			c0.668,0.732,1.695,1.333,3.08,1.8c1.383,0.469,3.146,0.951,5.279,1.452c2.469,0.533,4.604,1.185,6.403,1.953
			c1.804,0.768,3.188,1.791,4.154,3.076c0.966,1.284,1.451,2.996,1.451,5.13c0,2.268-0.566,4.138-1.701,5.604
			c-1.135,1.472-2.678,2.554-4.629,3.254c-1.953,0.701-4.146,1.052-6.582,1.052c-5.537,0-10.356-1.668-14.461-5.006l2.15-3.802
			c0.733,0.732,1.727,1.468,2.979,2.201c1.25,0.734,2.685,1.344,4.303,1.826c1.619,0.483,3.33,0.725,5.132,0.725
			c2.534,0,4.504-0.457,5.903-1.374c1.4-0.919,2.103-2.261,2.103-4.029c0-1.333-0.392-2.4-1.177-3.202
			c-0.782-0.802-1.942-1.468-3.477-2.002c-1.535-0.533-3.404-1.067-5.607-1.602c-2.399-0.601-4.42-1.259-6.053-1.978
			c-1.635-0.717-2.86-1.659-3.68-2.826c-0.816-1.169-1.228-2.688-1.228-4.556c0-2.27,0.554-4.188,1.652-5.756
			c1.103-1.566,2.619-2.752,4.555-3.553c1.935-0.801,4.119-1.201,6.556-1.201c2.369,0,4.528,0.368,6.481,1.103
			c1.949,0.731,3.679,1.719,5.179,2.953L332.666-72.44z"/>
	</g>
	<path d="M267.604-40.365h8.59v4.505h-8.59V-40.365z"/>
</g>
</svg>
