<?xml version="1.0" encoding="utf-8"?>
<!-- Generator: Adobe Illustrator 16.0.2, SVG Export Plug-In . SVG Version: 6.00 Build 0)  -->
<!DOCTYPE svg PUBLIC "-//W3C//DTD SVG 1.1//EN" "http://www.w3.org/Graphics/SVG/1.1/DTD/svg11.dtd">
<svg version="1.1" id="Layer_1" xmlns="http://www.w3.org/2000/svg" xmlns:xlink="http://www.w3.org/1999/xlink" x="0px" y="0px"
	 width="219.562px" height="43.257px" viewBox="18.226 122.479 219.562 43.257"
	 enable-background="new 18.226 122.479 219.562 43.257" xml:space="preserve">
<g>
	<g>
		<path d="M22.969,122.731l11.735,29.809l11.684-29.809h4.745l-14.381,35.451h-4.097l-14.43-35.451H22.969z"/>
		<path d="M55.926,158.182v-35.451h4.493v35.451H55.926z"/>
		<path d="M68.907,158.182v-35.451h12.284c3.795,0,6.971,0.789,9.515,2.371c2.547,1.578,4.451,3.713,5.717,6.392
			c1.264,2.683,1.896,5.651,1.896,8.911c0,3.597-0.698,6.725-2.097,9.391c-1.396,2.662-3.381,4.727-5.94,6.189
			c-2.563,1.467-5.596,2.197-9.091,2.197H68.907z M93.776,140.405c0-2.662-0.49-5.022-1.475-7.088
			c-0.98-2.063-2.406-3.682-4.267-4.844c-1.865-1.166-4.146-1.748-6.845-1.748H73.4v27.463h7.79c2.73,0,5.026-0.604,6.893-1.824
			c1.864-1.211,3.278-2.86,4.246-4.941C93.294,145.341,93.776,143.001,93.776,140.405z"/>
		<path d="M170.003,154.237v3.994h-67.298V122.78h66.851v3.994H107.2v11.484h59.856v3.743H107.2v12.233h62.803V154.237z"/>
		<path d="M190.301,158.43c-2.496,0-4.759-0.496-6.79-1.496c-2.032-0.998-3.788-2.355-5.267-4.07
			c-1.483-1.711-2.622-3.646-3.422-5.791c-0.798-2.145-1.199-4.354-1.199-6.615c0-2.365,0.427-4.62,1.275-6.766
			c0.846-2.15,2.028-4.063,3.544-5.741c1.517-1.683,3.287-3.017,5.319-3.996c2.027-0.981,4.242-1.476,6.64-1.476
			c2.494,0,4.76,0.517,6.79,1.549c2.032,1.033,3.778,2.414,5.242,4.146c1.466,1.729,2.596,3.661,3.396,5.79
			c0.801,2.135,1.198,4.313,1.198,6.543c0,2.365-0.419,4.62-1.247,6.766c-0.834,2.146-2.008,4.063-3.522,5.742
			c-1.512,1.682-3.287,3.008-5.315,3.971C194.913,157.952,192.697,158.43,190.301,158.43z M178.166,140.457
			c0,1.796,0.293,3.535,0.875,5.218c0.584,1.682,1.404,3.17,2.474,4.471c1.064,1.295,2.346,2.328,3.845,3.092
			c1.499,0.769,3.162,1.15,4.994,1.15c1.898,0,3.592-0.398,5.092-1.199c1.499-0.795,2.771-1.86,3.82-3.192
			c1.047-1.333,1.848-2.828,2.396-4.495c0.549-1.666,0.823-3.344,0.823-5.043c0-1.801-0.291-3.525-0.873-5.193
			c-0.584-1.666-1.418-3.152-2.499-4.47c-1.079-1.313-2.364-2.351-3.845-3.097c-1.481-0.748-3.121-1.121-4.916-1.121
			c-1.896,0-3.596,0.391-5.096,1.171c-1.495,0.782-2.771,1.84-3.82,3.173c-1.048,1.329-1.853,2.82-2.422,4.471
			C178.45,137.037,178.166,138.725,178.166,140.457z"/>
		<path d="M234.094,130.168c-0.833-0.931-2.117-1.78-3.848-2.544c-1.732-0.768-3.662-1.148-5.791-1.148
			c-2.731,0-4.743,0.516-6.043,1.547c-1.297,1.033-1.946,2.447-1.946,4.246c0,1.265,0.333,2.266,1,2.996
			c0.662,0.73,1.687,1.332,3.066,1.795c1.383,0.469,3.138,0.951,5.271,1.451c2.463,0.532,4.592,1.178,6.393,1.946
			c1.797,0.765,3.179,1.787,4.146,3.067c0.961,1.283,1.445,2.99,1.445,5.119c0,2.265-0.568,4.129-1.698,5.594
			c-1.13,1.466-2.67,2.547-4.62,3.246c-1.946,0.699-4.137,1.047-6.563,1.047c-5.525,0-10.338-1.666-14.435-4.992l2.149-3.796
			c0.73,0.735,1.724,1.467,2.971,2.198c1.247,0.73,2.679,1.34,4.296,1.824c1.612,0.479,3.319,0.723,5.115,0.723
			c2.532,0,4.494-0.459,5.893-1.373c1.398-0.913,2.098-2.256,2.098-4.02c0-1.332-0.391-2.396-1.175-3.197
			c-0.779-0.797-1.938-1.463-3.471-1.994c-1.527-0.532-3.393-1.064-5.592-1.602c-2.396-0.598-4.408-1.257-6.042-1.972
			c-1.63-0.716-2.854-1.653-3.669-2.819c-0.818-1.166-1.225-2.683-1.225-4.543c0-2.265,0.549-4.178,1.649-5.746
			c1.098-1.564,2.613-2.742,4.543-3.543c1.931-0.802,4.108-1.199,6.543-1.199c2.36,0,4.519,0.367,6.465,1.098
			c1.946,0.734,3.67,1.715,5.169,2.945L234.094,130.168z"/>
	</g>
	<path d="M47.336,161.231h8.59v4.505h-8.59V161.231z"/>
</g>
</svg>
